<?xml version="1.0" encoding="UTF-8"?>
<svg id="Camada_1" xmlns="http://www.w3.org/2000/svg" version="1.1" viewBox="0 0 862.69 217.91">
  <!-- Generator: Adobe Illustrator 30.3.0, SVG Export Plug-In . SVG Version: 2.1.1 Build 126)  -->
  <defs>
    <style>
      .st0 {
        fill: #fff;
      }

      .st1 {
        fill: #2563eb;
      }
    </style>
  </defs>
  <path class="st1" d="M12.08,139.98l17.59-30.53-17.67-29.98,20.7-35.74,34.23-.19,18-30.11,40.06.06,17.92,30.15,34.1.04,20.85,35.57-17.73,30.21,17.79,30.32-20.78,35.53-34.1.04-17.92,30.13-40.15.08-18.11-30.15-34.1-.1-20.7-35.32.02-.02ZM128.11,79.19l14.68,25.05,28.58-.06,14.51-25.03-14.87-24.9-28.17-.04-14.74,24.99ZM143.04,164.82l28.17-.13,14.7-24.82-14.66-25.07-28.56-.08-14.55,25.13,14.89,24.95.02.02ZM75.96,49l14.74,24.95,28.77-.19,14.41-25.03-14.85-24.92-28.29.06s-14.78,25.13-14.78,25.13ZM76.03,109.57l14.85,25.11,28.46-.1,14.64-25.15-14.89-25.05-28.42.27s-14.64,24.92-14.64,24.92ZM76.03,170.13l14.74,25.05,28.75-.08,14.49-25.2-14.78-24.82-28.56.08-14.64,24.95v.02ZM38.85,104.43l28.08-.29,14.72-24.88-14.99-25.05-28.02.08-14.64,25.18,14.85,24.97ZM38.85,164.84l28.31-.25,14.53-25.05-15.12-24.86h-27.75l-14.8,25.09,14.83,25.09v-.02Z"/>
  <path class="st0" d="M824.86,126.88h-34.69l-6.4,15.87-19.07-.15,33.2-76.97,19.55.06,33.54,76.97-19.55.1-6.57-15.89h-.02ZM819.05,112.28l-11.54-28.06-11.63,28.21s23.17-.15,23.17-.15Z"/>
  <path class="st0" d="M640.52,156.11c.71-2.34,2.59-5.04,4.37-6.73,10.31,9.47,35.65,11.73,41.13-1.69,2.09-5.14,2.43-10.89,1.92-16.35-6.15,7.03-13.72,9.83-22.58,9.68-16.23-.27-28.5-12.44-28.37-28.73.13-15.33,11.29-26.91,26.56-28.02,9.58-.69,18.51,2.3,24.61,9.79l.75-9.07,7.82.27-.25,56.41c-.06,12.9-10.56,21.54-22.56,22.62-12,1.09-23.21-.19-33.41-8.15l.02-.02ZM688.26,112.55c0-11.73-9.49-21.22-21.22-21.22s-21.22,9.49-21.22,21.22,9.49,21.22,21.22,21.22,21.22-9.49,21.22-21.22Z"/>
  <path class="st0" d="M319.16,128.11l5,5.65c-7.46,8.91-18.9,11.27-30.13,9.01-13.91-2.8-23.17-14.07-23.42-28.35-.17-9.58,3.58-18.51,10.52-24.05,7.57-6.06,17.65-7.72,27.31-4.96,13.49,3.87,20.81,17.73,18.9,31.11h-48.18c1.11,11.56,10.66,19.51,22.14,19.34,6.98-.1,12.42-1.82,17.84-7.74l.02-.02ZM319.34,110.17c-1.05-12.36-10.12-18.8-20.51-18.63s-18.65,7.88-19.59,18.71l40.11-.08Z"/>
  <rect class="st0" x="739.26" y="65.61" width="18.46" height="77.18"/>
  <path class="st0" d="M628.12,113.85c0,16.52-13.38,29.9-29.9,29.9s-29.9-13.38-29.9-29.9,13.38-29.9,29.9-29.9,29.9,13.38,29.9,29.9ZM619.92,113.83c0-11.98-9.7-21.68-21.68-21.68s-21.68,9.7-21.68,21.68,9.7,21.68,21.68,21.68,21.68-9.7,21.68-21.68Z"/>
  <path class="st0" d="M530.95,113.85c0,16.52-13.38,29.9-29.9,29.9s-29.9-13.38-29.9-29.9,13.38-29.9,29.9-29.9,29.9,13.38,29.9,29.9ZM522.71,113.81c0-11.98-9.7-21.68-21.68-21.68s-21.68,9.7-21.68,21.68,9.7,21.68,21.68,21.68,21.68-9.7,21.68-21.68Z"/>
  <path class="st0" d="M432.76,91.83c-11.5-.48-20.35,7.44-20.41,18.46l-.19,32.03c-2.28.21-5.33.27-8.53.21l-.06-57.08,8.09-.63.71,8.43c9.41-10.52,25.93-12.5,37.32-3.66,5.77,4.47,7.69,12.44,7.72,19.45l.04,33.6-8.64-.23-.21-34.98c-.06-8.68-6.69-15.22-15.83-15.6h-.02Z"/>
  <path class="st0" d="M383.58,126.94c2.3.96,5.02,2.74,6.73,4.5-6.08,9.83-17.33,13.38-28.25,11.77-14.74-2.2-24.8-14.05-25.03-28.73-.23-15.45,9.68-27.96,25.09-29.96,10.77-1.4,21.64,1.3,28.17,11.1l-6.59,4.79c-6-8.24-15.39-10.54-24.78-7.19-8.15,2.91-13.63,11.63-13.34,21.2.38,12.13,8.99,21.29,21.16,21.43,6.84.08,12.46-2.34,16.83-8.87v-.04Z"/>
  <path class="st0" d="M262.82,133.42l2.34,6.15c-6.82,5-15.6,5.48-22.81,1.15-4.68-2.8-6.54-8.28-6.52-13.59l.1-34.88-10.43-.29v-6.86l10.35-.21.1-13.47,8.05.13.23,13.28,17.4.15-.25,7.05-17.23.19v35c0,3.24,2.68,7.28,5.77,8.11,4.37,1.19,7.38.21,12.9-1.9Z"/>
  <rect class="st0" x="545.09" y="61.05" width="8.64" height="81.74"/>
  <circle class="st0" cx="718.81" cy="134.99" r="8.78"/>
</svg>